<svg width="393" height="145" viewBox="0 0 393 145" fill="none" xmlns="http://www.w3.org/2000/svg">
<g clip-path="url(#clip0_110_2)">
<rect width="393" height="145" rx="10" fill="url(#paint0_linear_110_2)"/>
<path d="M458 70.2886C441 133.789 495 336.789 195 99.7887C128.718 47.4263 -20 192.331 -20 133.789C-20 75.2464 93.2324 -55.7114 170 -55.7114C246.768 -55.7114 476.5 -135.711 458 70.2886Z" fill="#3083FF"/>
<path d="M384.5 48.5C384.5 78.8757 276.743 120.5 224 120.5C171.257 120.5 168.5 85.3757 168.5 55C168.5 24.6243 211.257 0 264 0C316.743 0 384.5 18.1243 384.5 48.5Z" fill="#CC0000"/>
<path d="M220 5C224.872 57 90.7219 185 25 185C-40.7219 185 -52 90.4523 -52 35.5C-52 -19.4523 3.77811 -82 69.5 -82C135.222 -82 220 -49.9523 220 5Z" fill="#FF0000"/>
<path d="M54.2443 93.6364C52.2841 93.6364 50.6032 93.3665 49.2017 92.8267C47.8097 92.2964 46.7017 91.572 45.8778 90.6534C45.054 89.7348 44.5189 88.7027 44.2727 87.5568L49.8693 86.804C50.0398 87.2396 50.3097 87.6468 50.679 88.0256C51.0483 88.4044 51.536 88.7074 52.142 88.9347C52.7576 89.1714 53.5057 89.2898 54.3864 89.2898C55.7027 89.2898 56.7869 88.9678 57.6392 88.3239C58.5009 87.6894 58.9318 86.6241 58.9318 85.1278V81.1364H58.6761C58.411 81.7424 58.0133 82.3153 57.483 82.8551C56.9527 83.3949 56.2708 83.8352 55.4375 84.1761C54.6042 84.517 53.6098 84.6875 52.4545 84.6875C50.8163 84.6875 49.3248 84.3087 47.9801 83.5511C46.6449 82.7841 45.5795 81.6146 44.7841 80.0426C43.9981 78.4612 43.6051 76.4631 43.6051 74.0483C43.6051 71.5767 44.0076 69.5123 44.8125 67.8551C45.6174 66.1979 46.6875 64.9574 48.0227 64.1335C49.3674 63.3097 50.84 62.8977 52.4403 62.8977C53.6619 62.8977 54.6847 63.1061 55.5085 63.5227C56.3324 63.9299 56.9953 64.4413 57.4972 65.0568C58.0085 65.6629 58.4015 66.2595 58.6761 66.8466H58.9034V63.1818H64.9119V85.2131C64.9119 87.0691 64.4574 88.6222 63.5483 89.8722C62.6392 91.1222 61.3797 92.0597 59.7699 92.6847C58.1695 93.3191 56.3277 93.6364 54.2443 93.6364ZM54.3722 80.142C55.3475 80.142 56.1714 79.9006 56.8438 79.4176C57.5256 78.9252 58.0464 78.2244 58.4062 77.3153C58.7756 76.3968 58.9602 75.2983 58.9602 74.0199C58.9602 72.7415 58.7803 71.6335 58.4205 70.696C58.0606 69.7491 57.5398 69.0152 56.858 68.4943C56.1761 67.9735 55.3475 67.7131 54.3722 67.7131C53.3778 67.7131 52.5398 67.983 51.858 68.5227C51.1761 69.053 50.66 69.7917 50.3097 70.7386C49.9593 71.6856 49.7841 72.7794 49.7841 74.0199C49.7841 75.2794 49.9593 76.3684 50.3097 77.2869C50.6695 78.196 51.1856 78.9015 51.858 79.4034C52.5398 79.8958 53.3778 80.142 54.3722 80.142ZM79.5852 85.4261C77.3788 85.4261 75.4706 84.9574 73.8608 84.0199C72.2604 83.0729 71.0246 81.7566 70.1534 80.071C69.2822 78.3759 68.8466 76.411 68.8466 74.1761C68.8466 71.9223 69.2822 69.9527 70.1534 68.267C71.0246 66.572 72.2604 65.2557 73.8608 64.3182C75.4706 63.3712 77.3788 62.8977 79.5852 62.8977C81.7917 62.8977 83.6951 63.3712 85.2955 64.3182C86.9053 65.2557 88.1458 66.572 89.017 68.267C89.8883 69.9527 90.3239 71.9223 90.3239 74.1761C90.3239 76.411 89.8883 78.3759 89.017 80.071C88.1458 81.7566 86.9053 83.0729 85.2955 84.0199C83.6951 84.9574 81.7917 85.4261 79.5852 85.4261ZM79.6136 80.7386C80.6174 80.7386 81.4555 80.4545 82.1278 79.8864C82.8002 79.3087 83.3068 78.5227 83.6477 77.5284C83.9981 76.5341 84.1733 75.4025 84.1733 74.1335C84.1733 72.8646 83.9981 71.733 83.6477 70.7386C83.3068 69.7443 82.8002 68.9583 82.1278 68.3807C81.4555 67.803 80.6174 67.5142 79.6136 67.5142C78.6004 67.5142 77.7481 67.803 77.0568 68.3807C76.375 68.9583 75.8589 69.7443 75.5085 70.7386C75.1676 71.733 74.9972 72.8646 74.9972 74.1335C74.9972 75.4025 75.1676 76.5341 75.5085 77.5284C75.8589 78.5227 76.375 79.3087 77.0568 79.8864C77.7481 80.4545 78.6004 80.7386 79.6136 80.7386ZM104.116 85.4261C101.91 85.4261 100.002 84.9574 98.392 84.0199C96.7917 83.0729 95.5559 81.7566 94.6847 80.071C93.8134 78.3759 93.3778 76.411 93.3778 74.1761C93.3778 71.9223 93.8134 69.9527 94.6847 68.267C95.5559 66.572 96.7917 65.2557 98.392 64.3182C100.002 63.3712 101.91 62.8977 104.116 62.8977C106.323 62.8977 108.226 63.3712 109.827 64.3182C111.437 65.2557 112.677 66.572 113.548 68.267C114.42 69.9527 114.855 71.9223 114.855 74.1761C114.855 76.411 114.42 78.3759 113.548 80.071C112.677 81.7566 111.437 83.0729 109.827 84.0199C108.226 84.9574 106.323 85.4261 104.116 85.4261ZM104.145 80.7386C105.149 80.7386 105.987 80.4545 106.659 79.8864C107.331 79.3087 107.838 78.5227 108.179 77.5284C108.529 76.5341 108.705 75.4025 108.705 74.1335C108.705 72.8646 108.529 71.733 108.179 70.7386C107.838 69.7443 107.331 68.9583 106.659 68.3807C105.987 67.803 105.149 67.5142 104.145 67.5142C103.132 67.5142 102.279 67.803 101.588 68.3807C100.906 68.9583 100.39 69.7443 100.04 70.7386C99.6989 71.733 99.5284 72.8646 99.5284 74.1335C99.5284 75.4025 99.6989 76.5341 100.04 77.5284C100.39 78.5227 100.906 79.3087 101.588 79.8864C102.279 80.4545 103.132 80.7386 104.145 80.7386ZM126.83 85.3551C125.172 85.3551 123.671 84.929 122.327 84.0767C120.991 83.215 119.931 81.9508 119.145 80.2841C118.368 78.608 117.98 76.553 117.98 74.1193C117.98 71.6193 118.383 69.5407 119.188 67.8835C119.992 66.2169 121.063 64.9716 122.398 64.1477C123.742 63.3144 125.215 62.8977 126.815 62.8977C128.037 62.8977 129.055 63.1061 129.869 63.5227C130.693 63.9299 131.356 64.4413 131.858 65.0568C132.369 65.6629 132.758 66.2595 133.023 66.8466H133.207V55.9091H139.244V85H133.278V81.5057H133.023C132.739 82.1117 132.336 82.7131 131.815 83.3097C131.304 83.8968 130.636 84.3845 129.812 84.7727C128.998 85.161 128.004 85.3551 126.83 85.3551ZM128.747 80.5398C129.723 80.5398 130.546 80.2746 131.219 79.7443C131.901 79.2045 132.421 78.4517 132.781 77.4858C133.151 76.5199 133.335 75.3883 133.335 74.0909C133.335 72.7936 133.155 71.6667 132.795 70.7102C132.436 69.7538 131.915 69.0152 131.233 68.4943C130.551 67.9735 129.723 67.7131 128.747 67.7131C127.753 67.7131 126.915 67.983 126.233 68.5227C125.551 69.0625 125.035 69.8106 124.685 70.767C124.334 71.7235 124.159 72.8314 124.159 74.0909C124.159 75.3598 124.334 76.482 124.685 77.4574C125.045 78.4233 125.561 79.1809 126.233 79.7301C126.915 80.2699 127.753 80.5398 128.747 80.5398ZM154.362 63.1818V66.0227H143.055V63.1818H154.362ZM146.35 57.9545H149.702V78.75C149.702 79.697 149.84 80.4072 150.114 80.8807C150.398 81.3447 150.758 81.6572 151.194 81.8182C151.639 81.9697 152.108 82.0455 152.6 82.0455C152.969 82.0455 153.272 82.0265 153.509 81.9886C153.746 81.9413 153.935 81.9034 154.077 81.875L154.759 84.8864C154.532 84.9716 154.215 85.0568 153.808 85.142C153.4 85.2367 152.884 85.2841 152.259 85.2841C151.312 85.2841 150.384 85.0805 149.475 84.6733C148.576 84.2661 147.827 83.6458 147.231 82.8125C146.644 81.9792 146.35 80.928 146.35 79.6591V57.9545ZM168.317 85.4545C166.215 85.4545 164.402 84.9905 162.877 84.0625C161.362 83.125 160.192 81.8182 159.369 80.142C158.554 78.4564 158.147 76.4962 158.147 74.2614C158.147 72.0265 158.554 70.0568 159.369 68.3523C160.192 66.6383 161.338 65.303 162.806 64.3466C164.283 63.3807 166.007 62.8977 167.977 62.8977C169.113 62.8977 170.235 63.0871 171.343 63.4659C172.451 63.8447 173.46 64.4602 174.369 65.3125C175.278 66.1553 176.002 67.2727 176.542 68.6648C177.082 70.0568 177.352 71.7708 177.352 73.8068V75.2273H160.533V72.3295H173.942C173.942 71.0985 173.696 70 173.204 69.0341C172.721 68.0682 172.03 67.3059 171.13 66.7472C170.24 66.1884 169.189 65.9091 167.977 65.9091C166.641 65.9091 165.486 66.2405 164.511 66.9034C163.545 67.5568 162.801 68.4091 162.281 69.4602C161.76 70.5114 161.499 71.6383 161.499 72.8409V74.7727C161.499 76.4205 161.783 77.8172 162.352 78.9631C162.929 80.0994 163.729 80.9659 164.752 81.5625C165.775 82.1496 166.963 82.4432 168.317 82.4432C169.198 82.4432 169.994 82.3201 170.704 82.0739C171.424 81.8182 172.044 81.4394 172.565 80.9375C173.085 80.4261 173.488 79.7917 173.772 79.0341L177.011 79.9432C176.67 81.0417 176.097 82.0076 175.292 82.8409C174.487 83.6648 173.493 84.3087 172.309 84.7727C171.125 85.2273 169.795 85.4545 168.317 85.4545ZM188.871 85.5114C187.489 85.5114 186.234 85.2509 185.107 84.7301C183.98 84.1998 183.085 83.4375 182.423 82.4432C181.76 81.4394 181.428 80.2273 181.428 78.8068C181.428 77.5568 181.674 76.5436 182.167 75.767C182.659 74.9811 183.317 74.3655 184.141 73.9205C184.965 73.4754 185.874 73.1439 186.869 72.9261C187.872 72.6989 188.881 72.5189 189.894 72.3864C191.22 72.2159 192.295 72.0881 193.119 72.0028C193.952 71.9081 194.558 71.7519 194.937 71.5341C195.325 71.3163 195.519 70.9375 195.519 70.3977V70.2841C195.519 68.8826 195.136 67.7936 194.369 67.017C193.611 66.2405 192.46 65.8523 190.917 65.8523C189.317 65.8523 188.062 66.2027 187.153 66.9034C186.244 67.6042 185.604 68.3523 185.235 69.1477L182.053 68.0114C182.621 66.6856 183.379 65.6534 184.326 64.9148C185.282 64.1667 186.324 63.6458 187.451 63.3523C188.587 63.0492 189.705 62.8977 190.803 62.8977C191.504 62.8977 192.309 62.983 193.218 63.1534C194.137 63.3144 195.022 63.6506 195.874 64.1619C196.736 64.6733 197.451 65.4451 198.019 66.4773C198.587 67.5095 198.871 68.892 198.871 70.625V85H195.519V82.0455H195.349C195.121 82.5189 194.743 83.0256 194.212 83.5653C193.682 84.1051 192.977 84.5644 192.096 84.9432C191.215 85.322 190.14 85.5114 188.871 85.5114ZM189.383 82.5C190.709 82.5 191.826 82.2396 192.735 81.7188C193.654 81.1979 194.345 80.5256 194.809 79.7017C195.282 78.8778 195.519 78.0114 195.519 77.1023V74.0341C195.377 74.2045 195.065 74.3608 194.582 74.5028C194.108 74.6354 193.559 74.7538 192.934 74.858C192.318 74.9527 191.717 75.0379 191.13 75.1136C190.552 75.1799 190.084 75.2367 189.724 75.2841C188.853 75.3977 188.038 75.5824 187.281 75.8381C186.532 76.0843 185.926 76.4583 185.462 76.9602C185.008 77.4527 184.781 78.125 184.781 78.9773C184.781 80.142 185.211 81.0227 186.073 81.6193C186.944 82.2064 188.048 82.5 189.383 82.5ZM213.854 85.4545C211.808 85.4545 210.047 84.9716 208.57 84.0057C207.092 83.0398 205.956 81.7093 205.161 80.0142C204.365 78.3191 203.967 76.3826 203.967 74.2045C203.967 71.9886 204.375 70.0331 205.189 68.3381C206.013 66.6335 207.159 65.303 208.626 64.3466C210.104 63.3807 211.827 62.8977 213.797 62.8977C215.331 62.8977 216.714 63.1818 217.945 63.75C219.176 64.3182 220.184 65.1136 220.97 66.1364C221.756 67.1591 222.244 68.3523 222.433 69.7159H219.081C218.825 68.7216 218.257 67.8409 217.376 67.0739C216.505 66.2973 215.331 65.9091 213.854 65.9091C212.547 65.9091 211.401 66.25 210.416 66.9318C209.441 67.6042 208.679 68.5559 208.129 69.7869C207.589 71.0085 207.32 72.4432 207.32 74.0909C207.32 75.7765 207.585 77.2443 208.115 78.4943C208.655 79.7443 209.412 80.715 210.388 81.4062C211.373 82.0975 212.528 82.4432 213.854 82.4432C214.725 82.4432 215.516 82.2917 216.226 81.9886C216.936 81.6856 217.537 81.25 218.03 80.6818C218.522 80.1136 218.873 79.4318 219.081 78.6364H222.433C222.244 79.9242 221.775 81.0843 221.027 82.1165C220.288 83.1392 219.308 83.9536 218.087 84.5597C216.875 85.1562 215.464 85.4545 213.854 85.4545ZM230.686 71.875V85H227.334V55.9091H230.686V66.5909H230.97C231.482 65.464 232.249 64.5691 233.271 63.9062C234.304 63.2339 235.677 62.8977 237.391 62.8977C238.877 62.8977 240.179 63.196 241.297 63.7926C242.414 64.3797 243.281 65.2841 243.896 66.5057C244.521 67.7178 244.834 69.2614 244.834 71.1364V85H241.482V71.3636C241.482 69.6307 241.032 68.2907 240.132 67.3438C239.242 66.3873 238.006 65.9091 236.425 65.9091C235.326 65.9091 234.341 66.1411 233.47 66.6051C232.608 67.0691 231.927 67.7462 231.425 68.6364C230.932 69.5265 230.686 70.6061 230.686 71.875ZM260.114 85.4545C258.012 85.4545 256.199 84.9905 254.674 84.0625C253.159 83.125 251.989 81.8182 251.165 80.142C250.351 78.4564 249.944 76.4962 249.944 74.2614C249.944 72.0265 250.351 70.0568 251.165 68.3523C251.989 66.6383 253.135 65.303 254.603 64.3466C256.08 63.3807 257.804 62.8977 259.773 62.8977C260.91 62.8977 262.032 63.0871 263.14 63.4659C264.248 63.8447 265.256 64.4602 266.165 65.3125C267.075 66.1553 267.799 67.2727 268.339 68.6648C268.879 70.0568 269.148 71.7708 269.148 73.8068V75.2273H252.33V72.3295H265.739C265.739 71.0985 265.493 70 265.001 69.0341C264.518 68.0682 263.826 67.3059 262.927 66.7472C262.037 66.1884 260.986 65.9091 259.773 65.9091C258.438 65.9091 257.283 66.2405 256.308 66.9034C255.342 67.5568 254.598 68.4091 254.077 69.4602C253.557 70.5114 253.296 71.6383 253.296 72.8409V74.7727C253.296 76.4205 253.58 77.8172 254.148 78.9631C254.726 80.0994 255.526 80.9659 256.549 81.5625C257.572 82.1496 258.76 82.4432 260.114 82.4432C260.995 82.4432 261.79 82.3201 262.501 82.0739C263.22 81.8182 263.841 81.4394 264.362 80.9375C264.882 80.4261 265.285 79.7917 265.569 79.0341L268.808 79.9432C268.467 81.0417 267.894 82.0076 267.089 82.8409C266.284 83.6648 265.29 84.3087 264.106 84.7727C262.922 85.2273 261.592 85.4545 260.114 85.4545ZM274.248 85V63.1818H277.487V66.4773H277.714C278.112 65.3977 278.831 64.5218 279.873 63.8494C280.915 63.1771 282.089 62.8409 283.396 62.8409C283.642 62.8409 283.95 62.8456 284.319 62.8551C284.688 62.8646 284.968 62.8788 285.157 62.8977V66.3068C285.043 66.2784 284.783 66.2358 284.376 66.179C283.978 66.1127 283.557 66.0795 283.112 66.0795C282.051 66.0795 281.104 66.3021 280.271 66.7472C279.447 67.1828 278.793 67.7888 278.31 68.5653C277.837 69.3324 277.6 70.2083 277.6 71.1932V85H274.248ZM289.177 85H285.484L296.165 55.9091H299.802L310.484 85H306.79L298.097 60.5114H297.87L289.177 85ZM290.54 73.6364H305.427V76.7614H290.54V73.6364ZM315.015 85V55.9091H324.844C327.127 55.9091 328.992 56.321 330.441 57.1449C331.899 57.9593 332.979 59.0625 333.68 60.4545C334.38 61.8466 334.731 63.3996 334.731 65.1136C334.731 66.8277 334.38 68.3854 333.68 69.7869C332.988 71.1884 331.918 72.3059 330.469 73.1392C329.021 73.9631 327.165 74.375 324.901 74.375H317.856V71.25H324.788C326.35 71.25 327.605 70.9801 328.552 70.4403C329.499 69.9006 330.185 69.1714 330.612 68.2528C331.047 67.3248 331.265 66.2784 331.265 65.1136C331.265 63.9489 331.047 62.9072 330.612 61.9886C330.185 61.0701 329.494 60.3504 328.538 59.8295C327.581 59.2992 326.312 59.0341 324.731 59.0341H318.538V85H315.015ZM343.928 55.9091V85H340.406V55.9091H343.928Z" fill="white"/>
</g>
<defs>
<linearGradient id="paint0_linear_110_2" x1="0" y1="0" x2="13.7201" y2="174.774" gradientUnits="userSpaceOnUse">
<stop offset="0.515625" stop-color="#99D4FF"/>
<stop offset="1" stop-color="#3083FF"/>
</linearGradient>
<clipPath id="clip0_110_2">
<rect width="393" height="145" rx="10" fill="white"/>
</clipPath>
</defs>
</svg>
